REM DIRINDEX 1\2,1\3,1\4,1\5
REM DIRNAME "folder01","folder02","folder03","folder04","folder05"
TITLE ""
FILE "1Q_t_2068-2077.mp3" MP3
  TRACK 01 AUDIO
    TITLE "3:cjc172_7215"
    INDEX 01 00:00:00
  TRACK 02 AUDIO
    TITLE "0:"
    INDEX 01 00:01:12
  TRACK 03 AUDIO
    TITLE "4:cjc172_7216"
    INDEX 01 00:01:22
  TRACK 04 AUDIO
    TITLE "0:"
    INDEX 01 00:02:21
  TRACK 05 AUDIO
    TITLE "5:cjc172_7217"
    INDEX 01 00:02:29
  TRACK 06 AUDIO
    TITLE "0:"
    INDEX 01 00:06:54
  TRACK 07 AUDIO
    TITLE "3:cjc172_7218"
    INDEX 01 00:07:28
  TRACK 08 AUDIO
    TITLE "0:"
    INDEX 01 00:08:27
  TRACK 09 AUDIO
    TITLE "4:cjc172_7219"
    INDEX 01 00:08:35
  TRACK 10 AUDIO
    TITLE "0:"
    INDEX 01 00:11:36
  TRACK 11 AUDIO
    TITLE "5:cjc172_7220"
    INDEX 01 00:11:41
  TRACK 12 AUDIO
    TITLE "0:"
    INDEX 01 00:16:49
  TRACK 13 AUDIO
    TITLE "3:cjc172_7221"
    INDEX 01 00:17:21
  TRACK 14 AUDIO
    TITLE "0:"
    INDEX 01 00:18:42
  TRACK 15 AUDIO
    TITLE "4:cjc172_7222"
    INDEX 01 00:18:51
  TRACK 16 AUDIO
    TITLE "0:"
    INDEX 01 00:22:51
  TRACK 17 AUDIO
    TITLE "5:cjc172_7223"
    INDEX 01 00:22:59
  TRACK 18 AUDIO
    TITLE "0:"
    INDEX 01 00:27:46
  TRACK 19 AUDIO
    TITLE "3:cjc172_7224"
    INDEX 01 00:28:16
  TRACK 20 AUDIO
    TITLE "0:"
    INDEX 01 00:29:34
  TRACK 21 AUDIO
    TITLE "4:cjc172_7225"
    INDEX 01 00:29:43
  TRACK 22 AUDIO
    TITLE "0:"
    INDEX 01 00:31:13
  TRACK 23 AUDIO
    TITLE "5:cjc172_7226"
    INDEX 01 00:31:19
  TRACK 24 AUDIO
    TITLE "0:"
    INDEX 01 00:37:02
  TRACK 25 AUDIO
    TITLE "3:cjc172_7227"
    INDEX 01 00:37:47
  TRACK 26 AUDIO
    TITLE "0:"
    INDEX 01 00:38:56
  TRACK 27 AUDIO
    TITLE "4:cjc172_7228"
    INDEX 01 00:38:64
  TRACK 28 AUDIO
    TITLE "0:"
    INDEX 01 00:39:71
  TRACK 29 AUDIO
    TITLE "5:cjc172_7229"
    INDEX 01 00:40:04
  TRACK 30 AUDIO
    TITLE "0:"
    INDEX 01 00:45:27
  TRACK 31 AUDIO
    TITLE "3:cjc172_7230"
    INDEX 01 00:45:74
  TRACK 32 AUDIO
    TITLE "0:"
    INDEX 01 00:47:06
  TRACK 33 AUDIO
    TITLE "4:cjc172_7231"
    INDEX 01 00:47:14
  TRACK 34 AUDIO
    TITLE "0:"
    INDEX 01 00:49:70
  TRACK 35 AUDIO
    TITLE "5:cjc172_7232"
    INDEX 01 00:50:04
  TRACK 36 AUDIO
    TITLE "0:"
    INDEX 01 00:54:02
  TRACK 37 AUDIO
    TITLE "3:cjc172_7233"
    INDEX 01 00:54:47
  TRACK 38 AUDIO
    TITLE "0:"
    INDEX 01 00:56:09
  TRACK 39 AUDIO
    TITLE "4:cjc172_7234"
    INDEX 01 00:56:17
  TRACK 40 AUDIO
    TITLE "0:"
    INDEX 01 00:57:42
  TRACK 41 AUDIO
    TITLE "5:cjc172_7235"
    INDEX 01 00:57:49
  TRACK 42 AUDIO
    TITLE "0:"
    INDEX 01 01:02:25
  TRACK 43 AUDIO
    TITLE "3:cjc172_7236"
    INDEX 01 01:02:72
  TRACK 44 AUDIO
    TITLE "0:"
    INDEX 01 01:04:10
  TRACK 45 AUDIO
    TITLE "4:cjc172_7237"
    INDEX 01 01:04:22
  TRACK 46 AUDIO
    TITLE "0:"
    INDEX 01 01:05:43
  TRACK 47 AUDIO
    TITLE "5:cjc172_7238"
    INDEX 01 01:05:51
  TRACK 48 AUDIO
    TITLE "0:"
    INDEX 01 01:11:24
  TRACK 49 AUDIO
    TITLE "3:cjc172_7239"
    INDEX 01 01:11:69
  TRACK 50 AUDIO
    TITLE "0:"
    INDEX 01 01:13:15
  TRACK 51 AUDIO
    TITLE "4:cjc172_7240"
    INDEX 01 01:13:25
  TRACK 52 AUDIO
    TITLE "0:"
    INDEX 01 01:14:44
  TRACK 53 AUDIO
    TITLE "5:cjc172_7241"
    INDEX 01 01:14:52
  TRACK 54 AUDIO
    TITLE "0:"
    INDEX 01 01:21:11
  TRACK 55 AUDIO
    TITLE "3:cjc172_7242"
    INDEX 01 01:21:58
  TRACK 56 AUDIO
    TITLE "0:"
    INDEX 01 01:22:67
  TRACK 57 AUDIO
    TITLE "4:cjc172_7243"
    INDEX 01 01:22:73
  TRACK 58 AUDIO
    TITLE "0:"
    INDEX 01 01:24:33
  TRACK 59 AUDIO
    TITLE "5:cjc172_7244"
    INDEX 01 01:24:40
  TRACK 60 AUDIO
    TITLE "0:"
    INDEX 01 01:28:54
